<svg width="200" height="200" viewBox="0 0 200 200" xmlns="http://www.w3.org/2000/svg">
  <defs>
    <linearGradient id="rootGradient" x1="0%" y1="0%" x2="100%" y2="100%">
      <stop offset="0%" style="stop-color:#d4a373;stop-opacity:1" /> <!-- Light Brown -->
      <stop offset="100%" style="stop-color:#8d6e63;stop-opacity:1" /> <!-- Dark Brown -->
    </linearGradient>
    <filter id="texture">
      <feTurbulence type="fractalNoise" baseFrequency="0.5" numOctaves="3" stitchTiles="stitch"/>
      <feColorMatrix type="matrix" values="1 0 0 0 0  0 1 0 0 0  0 0 1 0 0  0 0 0 0.2 0"/>
      <feComposite operator="in" in2="SourceGraphic"/>
      <feMerge>
        <feMergeNode in="SourceGraphic"/>
        <feMergeNode/>
      </feMerge>
    </filter>
  </defs>
  <!-- Main Root Body -->
  <path d="M90,20 C100,50 110,80 100,120 C95,140 90,160 95,180 C100,190 110,190 115,170 C120,150 115,130 120,100 C125,70 120,40 110,20 Z" 
        fill="url(#rootGradient)" 
        stroke="#5d4037" 
        stroke-width="1"/>
  <!-- Branching Roots -->
  <path d="M100,60 Q130,80 140,110" fill="none" stroke="#8d6e63" stroke-width="4" stroke-linecap="round" />
  <path d="M100,90 Q70,110 60,140" fill="none" stroke="#8d6e63" stroke-width="5" stroke-linecap="round" />
  <path d="M105,130 Q120,150 125,180" fill="none" stroke="#8d6e63" stroke-width="3" stroke-linecap="round" />
  <!-- Texture Details -->
  <circle cx="100" cy="50" r="2" fill="#5d4037" opacity="0.5"/>
  <circle cx="110" cy="80" r="3" fill="#5d4037" opacity="0.5"/>
  <circle cx="95" cy="110" r="2" fill="#5d4037" opacity="0.5"/>
</svg>
