<svg width="200" height="50" viewBox="0 0 200 50" xmlns="http://www.w3.org/2000/svg">
    <!-- Visa -->
    <g transform="translate(10, 10) scale(0.6)">
        <path fill="#1A1F71" d="M22.67 30.65H27L42 2.5H36.37C34.73 2.5 33.19 3.1 32.55 4.35L27 20.35 22.25 4.35C21.61 3.1 20.07 2.5 18.43 2.5H12L22.67 30.65ZM0 2.5L7.5 30.65H12L18.43 2.5H0ZM60 30.65H66L72 2.5H66L60 30.65ZM85.5 11.2C85.5 6.05 82.35 4.5 79.2 4.15C76.95 3.9 74.7 4.15 72.45 4.65L73.2 8.5C74.9 8.1 76.65 7.85 78.4 8.15C80.25 8.4 81.35 9.45 81.35 11.3C81.35 15.35 73.05 15.35 73.05 21.05C73.05 23.55 75.3 25.15 77.85 25.4C80.1 25.65 82.35 25.4 84.6 24.9L83.85 21.05C82.15 21.45 80.4 21.7 78.65 21.4C76.8 21.15 75.7 20.1 75.7 18.25C75.7 14.2 84 14.2 84 8.5C84 6.7 82.5 5.5 80.5 5.25L85.5 11.2Z"/>
    </g>
    <!-- Mastercard -->
    <g transform="translate(60, 5) scale(0.6)">
        <circle cx="22" cy="22" r="14" fill="#EB001B" fill-opacity="0.8"/>
        <circle cx="38" cy="22" r="14" fill="#F79E1B" fill-opacity="0.8"/>
        <path d="M30 13C32.1217 13 34.1566 13.8429 35.6569 15.3431C37.1571 16.8434 38 18.8783 38 21C38 23.1217 37.1571 25.1566 35.6569 26.6569C34.1566 28.1571 32.1217 29 30 29C27.8783 29 25.8434 28.1571 24.3431 26.6569C22.8429 25.1566 22 23.1217 22 21C22 18.8783 22.8429 16.8434 24.3431 15.3431C25.8434 13.8429 27.8783 13 30 13Z" fill="#FF5F00"/>
    </g>
    <!-- Simple Generic UPI/Bank Icon -->
    <g transform="translate(110, 10) scale(0.6)">
       <rect x="0" y="5" width="40" height="25" rx="2" fill="#333"/>
       <circle cx="10" cy="17" r="3" fill="white"/>
       <rect x="18" y="15" width="15" height="4" fill="white"/>
    </g>
</svg>
